<?xml version="1.0" standalone="no"?><!DOCTYPE svg PUBLIC "-//W3C//DTD SVG 1.1//EN" "http://www.w3.org/Graphics/SVG/1.1/DTD/svg11.dtd"><svg t="1621150998157" class="icon" viewBox="0 0 1024 1024" version="1.1" xmlns="http://www.w3.org/2000/svg" p-id="12796" xmlns:xlink="http://www.w3.org/1999/xlink" width="128" height="128"><defs><style type="text/css"></style></defs><path d="M844.4 552.2c-11.6 0-21.1-9.4-21.1-21.1v-198c0-26.2-21.3-47.5-47.5-47.5H576.6c-32.9 0-64-12.5-87.8-35.2l-17-16.3c-13.7-13.1-31.6-20.3-50.5-20.3H272.5c-26.2 0-47.5 21.3-47.5 47.5v198c0 11.6-9.4 21.1-21.1 21.1s-21.1-9.4-21.1-21.1v-198c0-49.5 40.2-89.7 89.7-89.7h148.8c29.8 0 58.1 11.4 79.7 32l17 16.3c15.8 15.2 36.7 23.5 58.6 23.5h199.2c49.5 0 89.7 40.2 89.7 89.7v198c0 11.7-9.4 21.1-21.1 21.1z" p-id="12797"></path><path d="M685.4 490.6m-69.1 0a69.1 69.1 0 1 0 138.2 0 69.1 69.1 0 1 0-138.2 0Z" opacity=".8" p-id="12798"></path><path d="M685.4 580.8c-49.7 0-90.2-40.4-90.2-90.2 0-49.7 40.5-90.2 90.2-90.2s90.2 40.4 90.2 90.2c0 49.8-40.4 90.2-90.2 90.2z m0-138.2c-26.5 0-48 21.5-48 48s21.5 48 48 48 48-21.5 48-48-21.5-48-48-48z" p-id="12799"></path><path d="M775.8 822.1H272.5c-49.5 0-89.7-40.2-89.7-89.7V412.3c0-49.5 40.2-89.7 89.7-89.7h503.3c49.5 0 89.7 40.2 89.7 89.7v320.1c0 49.5-40.2 89.7-89.7 89.7zM272.5 364.8c-26.2 0-47.5 21.3-47.5 47.5v320.1c0 26.2 21.3 47.5 47.5 47.5h503.3c26.2 0 47.5-21.3 47.5-47.5V412.3c0-26.2-21.3-47.5-47.5-47.5H272.5z" p-id="12800"></path></svg>
